<mxfile host="app.diagrams.net" modified="2021-04-26T11:56:08.755Z" agent="5.0 (Windows NT 10.0; Win64; x64) AppleWebKit/537.36 (KHTML, like Gecko) Chrome/89.0.4389.128 Safari/537.36" etag="Gad_k0qsNBm-3xiHKbPb" version="14.6.6" type="github">
  <diagram id="Gg7oe4cbM-nP1ZBiEeL3" name="Page-1">
    <mxGraphModel dx="999" dy="402" grid="1" gridSize="10" guides="1" tooltips="1" connect="1" arrows="1" fold="1" page="1" pageScale="1" pageWidth="850" pageHeight="1100" math="0" shadow="0">
      <root>
        <mxCell id="0" />
        <mxCell id="1" parent="0" />
        <mxCell id="dE7XT5yFoyi2Y103YuFL-1" value="items" style="rounded=0;whiteSpace=wrap;html=1;fillColor=#B9E0A5;" vertex="1" parent="1">
          <mxGeometry x="140" y="110" width="70" height="30" as="geometry" />
        </mxCell>
        <mxCell id="dE7XT5yFoyi2Y103YuFL-2" value="&lt;u&gt;id&lt;/u&gt;" style="ellipse;whiteSpace=wrap;html=1;fillColor=#B9E0A5;" vertex="1" parent="1">
          <mxGeometry x="60" y="40" width="80" height="50" as="geometry" />
        </mxCell>
        <mxCell id="dE7XT5yFoyi2Y103YuFL-4" value="name" style="ellipse;whiteSpace=wrap;html=1;fillColor=#B9E0A5;" vertex="1" parent="1">
          <mxGeometry x="30" y="120" width="80" height="50" as="geometry" />
        </mxCell>
        <mxCell id="dE7XT5yFoyi2Y103YuFL-8" value="weight" style="ellipse;whiteSpace=wrap;html=1;fillColor=#B9E0A5;" vertex="1" parent="1">
          <mxGeometry x="170" y="30" width="80" height="50" as="geometry" />
        </mxCell>
        <mxCell id="dE7XT5yFoyi2Y103YuFL-9" value="amount" style="ellipse;whiteSpace=wrap;html=1;fillColor=#E6E6E6;" vertex="1" parent="1">
          <mxGeometry x="360" y="30" width="80" height="50" as="geometry" />
        </mxCell>
        <mxCell id="dE7XT5yFoyi2Y103YuFL-10" value="sites" style="rounded=0;whiteSpace=wrap;html=1;fillColor=#FFFF99;" vertex="1" parent="1">
          <mxGeometry x="140" y="310" width="70" height="30" as="geometry" />
        </mxCell>
        <mxCell id="dE7XT5yFoyi2Y103YuFL-11" value="&lt;u&gt;site_id&lt;/u&gt;" style="ellipse;whiteSpace=wrap;html=1;fillColor=#FFFF99;" vertex="1" parent="1">
          <mxGeometry x="30" y="300" width="80" height="50" as="geometry" />
        </mxCell>
        <mxCell id="dE7XT5yFoyi2Y103YuFL-12" value="city" style="ellipse;whiteSpace=wrap;html=1;fillColor=#FFFF99;" vertex="1" parent="1">
          <mxGeometry x="60" y="360" width="80" height="50" as="geometry" />
        </mxCell>
        <mxCell id="dE7XT5yFoyi2Y103YuFL-13" value="phone_number" style="ellipse;whiteSpace=wrap;html=1;fillColor=#FFFF99;" vertex="1" parent="1">
          <mxGeometry x="225" y="360" width="90" height="50" as="geometry" />
        </mxCell>
        <mxCell id="dE7XT5yFoyi2Y103YuFL-14" value="delivery_area" style="ellipse;whiteSpace=wrap;html=1;fillColor=#FFFF99;" vertex="1" parent="1">
          <mxGeometry x="150" y="390" width="80" height="50" as="geometry" />
        </mxCell>
        <mxCell id="dE7XT5yFoyi2Y103YuFL-15" value="contact_name" style="ellipse;whiteSpace=wrap;html=1;fillColor=#FFFF99;" vertex="1" parent="1">
          <mxGeometry x="90" y="240" width="90" height="50" as="geometry" />
        </mxCell>
        <mxCell id="dE7XT5yFoyi2Y103YuFL-16" value="name" style="ellipse;whiteSpace=wrap;html=1;fillColor=#FFFF99;" vertex="1" parent="1">
          <mxGeometry x="220" y="240" width="80" height="50" as="geometry" />
        </mxCell>
        <mxCell id="dE7XT5yFoyi2Y103YuFL-17" value="truck_reports" style="rounded=0;whiteSpace=wrap;html=1;fillColor=#E5CCFF;" vertex="1" parent="1">
          <mxGeometry x="430" y="430" width="70" height="30" as="geometry" />
        </mxCell>
        <mxCell id="dE7XT5yFoyi2Y103YuFL-18" value="date&lt;span style=&quot;color: rgba(0 , 0 , 0 , 0) ; font-family: monospace ; font-size: 0px&quot;&gt;%3CmxGraphModel%3E%3Croot%3E%3CmxCell%20id%3D%220%22%2F%3E%3CmxCell%20id%3D%221%22%20parent%3D%220%22%2F%3E%3CmxCell%20id%3D%222%22%20value%3D%22%26lt%3Bu%26gt%3Bid%26lt%3B%2Fu%26gt%3B%22%20style%3D%22ellipse%3BwhiteSpace%3Dwrap%3Bhtml%3D1%3B%22%20vertex%3D%221%22%20parent%3D%221%22%3E%3CmxGeometry%20x%3D%2260%22%20y%3D%2240%22%20width%3D%2280%22%20height%3D%2250%22%20as%3D%22geometry%22%2F%3E%3C%2FmxCell%3E%3C%2Froot%3E%3C%2FmxGraphModel%3E&lt;/span&gt;" style="ellipse;whiteSpace=wrap;html=1;fillColor=#E5CCFF;" vertex="1" parent="1">
          <mxGeometry x="510" y="480" width="80" height="50" as="geometry" />
        </mxCell>
        <mxCell id="dE7XT5yFoyi2Y103YuFL-20" value="&lt;u&gt;id&lt;/u&gt;" style="ellipse;whiteSpace=wrap;html=1;fillColor=#E5CCFF;" vertex="1" parent="1">
          <mxGeometry x="425" y="490" width="80" height="50" as="geometry" />
        </mxCell>
        <mxCell id="dE7XT5yFoyi2Y103YuFL-21" value="leaving_hour" style="ellipse;whiteSpace=wrap;html=1;fillColor=#E5CCFF;" vertex="1" parent="1">
          <mxGeometry x="425" y="360" width="80" height="50" as="geometry" />
        </mxCell>
        <mxCell id="dE7XT5yFoyi2Y103YuFL-25" value="origin" style="ellipse;whiteSpace=wrap;html=1;fillColor=#E5CCFF;" vertex="1" parent="1">
          <mxGeometry x="345" y="380" width="80" height="50" as="geometry" />
        </mxCell>
        <mxCell id="dE7XT5yFoyi2Y103YuFL-26" value="completed" style="ellipse;whiteSpace=wrap;html=1;fillColor=#E5CCFF;" vertex="1" parent="1">
          <mxGeometry x="320" y="430" width="80" height="50" as="geometry" />
        </mxCell>
        <mxCell id="dE7XT5yFoyi2Y103YuFL-27" value="tr_replace" style="ellipse;whiteSpace=wrap;html=1;fillColor=#E5CCFF;" vertex="1" parent="1">
          <mxGeometry x="345" y="480" width="80" height="50" as="geometry" />
        </mxCell>
        <mxCell id="dE7XT5yFoyi2Y103YuFL-38" value="delivery_form" style="rounded=0;whiteSpace=wrap;html=1;fillColor=#D4E1F5;" vertex="1" parent="1">
          <mxGeometry x="620" y="110" width="90" height="30" as="geometry" />
        </mxCell>
        <mxCell id="dE7XT5yFoyi2Y103YuFL-39" value="&lt;u&gt;id&lt;/u&gt;" style="ellipse;whiteSpace=wrap;html=1;fillColor=#D4E1F5;" vertex="1" parent="1">
          <mxGeometry x="590" y="50" width="80" height="50" as="geometry" />
        </mxCell>
        <mxCell id="dE7XT5yFoyi2Y103YuFL-43" value="leaving_weight" style="ellipse;whiteSpace=wrap;html=1;fillColor=#D4E1F5;" vertex="1" parent="1">
          <mxGeometry x="680" y="50" width="90" height="50" as="geometry" />
        </mxCell>
        <mxCell id="dE7XT5yFoyi2Y103YuFL-46" value="demand" style="rhombus;whiteSpace=wrap;html=1;fillColor=#E6E6E6;" vertex="1" parent="1">
          <mxGeometry x="280" y="95" width="80" height="60" as="geometry" />
        </mxCell>
        <mxCell id="dE7XT5yFoyi2Y103YuFL-47" value="" style="endArrow=none;html=1;exitX=1;exitY=0.5;exitDx=0;exitDy=0;entryX=0;entryY=0;entryDx=0;entryDy=0;" edge="1" parent="1" source="dE7XT5yFoyi2Y103YuFL-1" target="dE7XT5yFoyi2Y103YuFL-46">
          <mxGeometry width="50" height="50" relative="1" as="geometry">
            <mxPoint x="400" y="220" as="sourcePoint" />
            <mxPoint x="450" y="170" as="targetPoint" />
          </mxGeometry>
        </mxCell>
        <mxCell id="dE7XT5yFoyi2Y103YuFL-135" value="0..*" style="edgeLabel;html=1;align=center;verticalAlign=middle;resizable=0;points=[];" vertex="1" connectable="0" parent="dE7XT5yFoyi2Y103YuFL-47">
          <mxGeometry x="-0.3209" y="3" relative="1" as="geometry">
            <mxPoint x="10" y="-7" as="offset" />
          </mxGeometry>
        </mxCell>
        <mxCell id="dE7XT5yFoyi2Y103YuFL-48" value="" style="endArrow=none;html=1;exitX=0;exitY=1;exitDx=0;exitDy=0;entryX=0.5;entryY=0;entryDx=0;entryDy=0;" edge="1" parent="1" source="dE7XT5yFoyi2Y103YuFL-46" target="dE7XT5yFoyi2Y103YuFL-10">
          <mxGeometry width="50" height="50" relative="1" as="geometry">
            <mxPoint x="220" y="135" as="sourcePoint" />
            <mxPoint x="260" y="195" as="targetPoint" />
          </mxGeometry>
        </mxCell>
        <mxCell id="dE7XT5yFoyi2Y103YuFL-136" value="0..*" style="edgeLabel;html=1;align=center;verticalAlign=middle;resizable=0;points=[];" vertex="1" connectable="0" parent="dE7XT5yFoyi2Y103YuFL-48">
          <mxGeometry x="-0.3445" y="-9" relative="1" as="geometry">
            <mxPoint x="-12" y="10" as="offset" />
          </mxGeometry>
        </mxCell>
        <mxCell id="dE7XT5yFoyi2Y103YuFL-52" value="destination" style="rhombus;whiteSpace=wrap;html=1;fillColor=#E6E6E6;" vertex="1" parent="1">
          <mxGeometry x="410" y="260" width="70" height="50" as="geometry" />
        </mxCell>
        <mxCell id="dE7XT5yFoyi2Y103YuFL-53" value="" style="endArrow=none;html=1;entryX=0;entryY=0.5;entryDx=0;entryDy=0;exitX=1;exitY=0.5;exitDx=0;exitDy=0;" edge="1" parent="1" target="dE7XT5yFoyi2Y103YuFL-52" source="dE7XT5yFoyi2Y103YuFL-10">
          <mxGeometry width="50" height="50" relative="1" as="geometry">
            <mxPoint x="220" y="120" as="sourcePoint" />
            <mxPoint x="390" y="220" as="targetPoint" />
          </mxGeometry>
        </mxCell>
        <mxCell id="dE7XT5yFoyi2Y103YuFL-128" value="1" style="edgeLabel;html=1;align=center;verticalAlign=middle;resizable=0;points=[];" vertex="1" connectable="0" parent="dE7XT5yFoyi2Y103YuFL-53">
          <mxGeometry x="0.3745" y="-3" relative="1" as="geometry">
            <mxPoint x="2" y="10" as="offset" />
          </mxGeometry>
        </mxCell>
        <mxCell id="dE7XT5yFoyi2Y103YuFL-54" value="" style="endArrow=none;html=1;entryX=1;entryY=0.5;entryDx=0;entryDy=0;exitX=0;exitY=0.5;exitDx=0;exitDy=0;" edge="1" parent="1" target="dE7XT5yFoyi2Y103YuFL-52" source="dE7XT5yFoyi2Y103YuFL-38">
          <mxGeometry width="50" height="50" relative="1" as="geometry">
            <mxPoint x="600" y="245" as="sourcePoint" />
            <mxPoint x="390" y="220" as="targetPoint" />
          </mxGeometry>
        </mxCell>
        <mxCell id="dE7XT5yFoyi2Y103YuFL-127" value="0..*" style="edgeLabel;html=1;align=center;verticalAlign=middle;resizable=0;points=[];" vertex="1" connectable="0" parent="dE7XT5yFoyi2Y103YuFL-54">
          <mxGeometry x="-0.1317" relative="1" as="geometry">
            <mxPoint x="-29" y="66" as="offset" />
          </mxGeometry>
        </mxCell>
        <mxCell id="dE7XT5yFoyi2Y103YuFL-56" value="origin" style="rhombus;whiteSpace=wrap;html=1;fillColor=#E6E6E6;" vertex="1" parent="1">
          <mxGeometry x="390" y="200" width="70" height="50" as="geometry" />
        </mxCell>
        <mxCell id="dE7XT5yFoyi2Y103YuFL-57" value="" style="endArrow=none;html=1;entryX=1;entryY=0.5;entryDx=0;entryDy=0;exitX=0;exitY=0.5;exitDx=0;exitDy=0;" edge="1" parent="1" source="dE7XT5yFoyi2Y103YuFL-38" target="dE7XT5yFoyi2Y103YuFL-56">
          <mxGeometry width="50" height="50" relative="1" as="geometry">
            <mxPoint x="600" y="245" as="sourcePoint" />
            <mxPoint x="490" y="295" as="targetPoint" />
          </mxGeometry>
        </mxCell>
        <mxCell id="dE7XT5yFoyi2Y103YuFL-125" value="0..*" style="edgeLabel;html=1;align=center;verticalAlign=middle;resizable=0;points=[];" vertex="1" connectable="0" parent="dE7XT5yFoyi2Y103YuFL-57">
          <mxGeometry x="0.1611" y="-2" relative="1" as="geometry">
            <mxPoint x="-6" y="-12" as="offset" />
          </mxGeometry>
        </mxCell>
        <mxCell id="dE7XT5yFoyi2Y103YuFL-58" value="" style="endArrow=none;html=1;entryX=1;entryY=0.5;entryDx=0;entryDy=0;exitX=0;exitY=1;exitDx=0;exitDy=0;" edge="1" parent="1" source="dE7XT5yFoyi2Y103YuFL-56" target="dE7XT5yFoyi2Y103YuFL-10">
          <mxGeometry width="50" height="50" relative="1" as="geometry">
            <mxPoint x="600" y="245" as="sourcePoint" />
            <mxPoint x="470" y="235" as="targetPoint" />
          </mxGeometry>
        </mxCell>
        <mxCell id="dE7XT5yFoyi2Y103YuFL-123" value="1" style="edgeLabel;html=1;align=center;verticalAlign=middle;resizable=0;points=[];" vertex="1" connectable="0" parent="dE7XT5yFoyi2Y103YuFL-58">
          <mxGeometry x="-0.4392" y="5" relative="1" as="geometry">
            <mxPoint x="-29" y="-7" as="offset" />
          </mxGeometry>
        </mxCell>
        <mxCell id="dE7XT5yFoyi2Y103YuFL-59" value="driver" style="rounded=0;whiteSpace=wrap;html=1;fillColor=#FFE599;" vertex="1" parent="1">
          <mxGeometry x="790" y="340" width="70" height="30" as="geometry" />
        </mxCell>
        <mxCell id="dE7XT5yFoyi2Y103YuFL-61" value="truck" style="rounded=0;whiteSpace=wrap;html=1;fillColor=#67AB9F;strokeColor=#000000;" vertex="1" parent="1">
          <mxGeometry x="820" y="570" width="70" height="30" as="geometry" />
        </mxCell>
        <mxCell id="dE7XT5yFoyi2Y103YuFL-64" value="name" style="ellipse;whiteSpace=wrap;html=1;fillColor=#FFE599;" vertex="1" parent="1">
          <mxGeometry x="820" y="260" width="80" height="50" as="geometry" />
        </mxCell>
        <mxCell id="dE7XT5yFoyi2Y103YuFL-65" value="license" style="ellipse;whiteSpace=wrap;html=1;fillColor=#FFE599;" vertex="1" parent="1">
          <mxGeometry x="880" y="320" width="80" height="50" as="geometry" />
        </mxCell>
        <mxCell id="dE7XT5yFoyi2Y103YuFL-66" value="" style="endArrow=none;html=1;exitX=1;exitY=0.5;exitDx=0;exitDy=0;entryX=0;entryY=1;entryDx=0;entryDy=0;" edge="1" parent="1" source="dE7XT5yFoyi2Y103YuFL-17" target="dE7XT5yFoyi2Y103YuFL-67">
          <mxGeometry width="50" height="50" relative="1" as="geometry">
            <mxPoint x="600" y="450" as="sourcePoint" />
            <mxPoint x="650" y="400" as="targetPoint" />
          </mxGeometry>
        </mxCell>
        <mxCell id="dE7XT5yFoyi2Y103YuFL-137" value="0,,*" style="edgeLabel;html=1;align=center;verticalAlign=middle;resizable=0;points=[];" vertex="1" connectable="0" parent="dE7XT5yFoyi2Y103YuFL-66">
          <mxGeometry x="0.3234" y="-4" relative="1" as="geometry">
            <mxPoint x="-23" y="-10" as="offset" />
          </mxGeometry>
        </mxCell>
        <mxCell id="dE7XT5yFoyi2Y103YuFL-67" value="drives" style="rhombus;whiteSpace=wrap;html=1;fillColor=#E6E6E6;" vertex="1" parent="1">
          <mxGeometry x="620" y="350" width="70" height="50" as="geometry" />
        </mxCell>
        <mxCell id="dE7XT5yFoyi2Y103YuFL-69" value="1" style="endArrow=none;html=1;exitX=1;exitY=0;exitDx=0;exitDy=0;entryX=0;entryY=0.5;entryDx=0;entryDy=0;" edge="1" parent="1" source="dE7XT5yFoyi2Y103YuFL-67" target="dE7XT5yFoyi2Y103YuFL-59">
          <mxGeometry x="-0.0117" y="9" width="50" height="50" relative="1" as="geometry">
            <mxPoint x="510" y="455" as="sourcePoint" />
            <mxPoint x="647.5" y="397.5" as="targetPoint" />
            <mxPoint as="offset" />
          </mxGeometry>
        </mxCell>
        <mxCell id="dE7XT5yFoyi2Y103YuFL-71" value="&lt;u&gt;id&lt;/u&gt;" style="ellipse;whiteSpace=wrap;html=1;fillColor=#67AB9F;strokeColor=#000000;" vertex="1" parent="1">
          <mxGeometry x="720" y="570" width="80" height="50" as="geometry" />
        </mxCell>
        <mxCell id="dE7XT5yFoyi2Y103YuFL-72" value="model" style="ellipse;whiteSpace=wrap;html=1;fillColor=#67AB9F;strokeColor=#000000;" vertex="1" parent="1">
          <mxGeometry x="840" y="500" width="80" height="50" as="geometry" />
        </mxCell>
        <mxCell id="dE7XT5yFoyi2Y103YuFL-73" value="weight_neto" style="ellipse;whiteSpace=wrap;html=1;fillColor=#67AB9F;strokeColor=#000000;" vertex="1" parent="1">
          <mxGeometry x="900" y="560" width="80" height="50" as="geometry" />
        </mxCell>
        <mxCell id="dE7XT5yFoyi2Y103YuFL-74" value="max_weight" style="ellipse;whiteSpace=wrap;html=1;fillColor=#67AB9F;strokeColor=#000000;" vertex="1" parent="1">
          <mxGeometry x="815" y="620" width="80" height="50" as="geometry" />
        </mxCell>
        <mxCell id="dE7XT5yFoyi2Y103YuFL-75" value="carry" style="rhombus;whiteSpace=wrap;html=1;fillColor=#E6E6E6;" vertex="1" parent="1">
          <mxGeometry x="650" y="470" width="70" height="50" as="geometry" />
        </mxCell>
        <mxCell id="dE7XT5yFoyi2Y103YuFL-76" value="" style="endArrow=none;html=1;exitX=1;exitY=1;exitDx=0;exitDy=0;entryX=0;entryY=0.5;entryDx=0;entryDy=0;" edge="1" parent="1" source="dE7XT5yFoyi2Y103YuFL-17" target="dE7XT5yFoyi2Y103YuFL-75">
          <mxGeometry width="50" height="50" relative="1" as="geometry">
            <mxPoint x="510" y="455" as="sourcePoint" />
            <mxPoint x="647.5" y="397.5" as="targetPoint" />
          </mxGeometry>
        </mxCell>
        <mxCell id="dE7XT5yFoyi2Y103YuFL-138" value="0..*" style="edgeLabel;html=1;align=center;verticalAlign=middle;resizable=0;points=[];" vertex="1" connectable="0" parent="dE7XT5yFoyi2Y103YuFL-76">
          <mxGeometry x="0.3625" y="2" relative="1" as="geometry">
            <mxPoint y="-12" as="offset" />
          </mxGeometry>
        </mxCell>
        <mxCell id="dE7XT5yFoyi2Y103YuFL-77" value="" style="endArrow=none;html=1;exitX=1;exitY=0.5;exitDx=0;exitDy=0;entryX=0.5;entryY=0;entryDx=0;entryDy=0;" edge="1" parent="1" source="dE7XT5yFoyi2Y103YuFL-75" target="dE7XT5yFoyi2Y103YuFL-61">
          <mxGeometry width="50" height="50" relative="1" as="geometry">
            <mxPoint x="520" y="465" as="sourcePoint" />
            <mxPoint x="657.5" y="407.5" as="targetPoint" />
          </mxGeometry>
        </mxCell>
        <mxCell id="dE7XT5yFoyi2Y103YuFL-139" value="1" style="edgeLabel;html=1;align=center;verticalAlign=middle;resizable=0;points=[];" vertex="1" connectable="0" parent="dE7XT5yFoyi2Y103YuFL-77">
          <mxGeometry x="0.189" y="1" relative="1" as="geometry">
            <mxPoint x="-1" y="-14" as="offset" />
          </mxGeometry>
        </mxCell>
        <mxCell id="dE7XT5yFoyi2Y103YuFL-78" value="" style="endArrow=none;html=1;exitX=1;exitY=0;exitDx=0;exitDy=0;entryX=0.5;entryY=1;entryDx=0;entryDy=0;" edge="1" parent="1" source="dE7XT5yFoyi2Y103YuFL-46" target="dE7XT5yFoyi2Y103YuFL-9">
          <mxGeometry width="50" height="50" relative="1" as="geometry">
            <mxPoint x="360" y="220" as="sourcePoint" />
            <mxPoint x="410" y="170" as="targetPoint" />
          </mxGeometry>
        </mxCell>
        <mxCell id="dE7XT5yFoyi2Y103YuFL-79" value="Employee" style="rounded=0;whiteSpace=wrap;html=1;fillColor=#CCFF99;" vertex="1" parent="1">
          <mxGeometry x="1220" y="575" width="70" height="30" as="geometry" />
        </mxCell>
        <mxCell id="dE7XT5yFoyi2Y103YuFL-80" value="&lt;u&gt;id&lt;/u&gt;" style="ellipse;whiteSpace=wrap;html=1;fillColor=#CCFF99;" vertex="1" parent="1">
          <mxGeometry x="1107.5" y="550" width="80" height="50" as="geometry" />
        </mxCell>
        <mxCell id="dE7XT5yFoyi2Y103YuFL-81" value="transactionDate" style="ellipse;whiteSpace=wrap;html=1;fillColor=#CCFF99;" vertex="1" parent="1">
          <mxGeometry x="1205" y="490" width="100" height="50" as="geometry" />
        </mxCell>
        <mxCell id="dE7XT5yFoyi2Y103YuFL-83" value="role" style="ellipse;whiteSpace=wrap;html=1;fillColor=#CCFF99;" vertex="1" parent="1">
          <mxGeometry x="1150" y="620" width="80" height="50" as="geometry" />
        </mxCell>
        <mxCell id="dE7XT5yFoyi2Y103YuFL-84" value="" style="endArrow=none;html=1;exitX=0;exitY=0.5;exitDx=0;exitDy=0;entryX=1;entryY=0.5;entryDx=0;entryDy=0;" edge="1" parent="1" target="dE7XT5yFoyi2Y103YuFL-79" source="dE7XT5yFoyi2Y103YuFL-106">
          <mxGeometry width="50" height="50" relative="1" as="geometry">
            <mxPoint x="1120" y="500" as="sourcePoint" />
            <mxPoint x="1057.5" y="412.5" as="targetPoint" />
          </mxGeometry>
        </mxCell>
        <mxCell id="dE7XT5yFoyi2Y103YuFL-171" value="1..*" style="edgeLabel;html=1;align=center;verticalAlign=middle;resizable=0;points=[];" vertex="1" connectable="0" parent="dE7XT5yFoyi2Y103YuFL-84">
          <mxGeometry x="-0.2832" y="4" relative="1" as="geometry">
            <mxPoint x="30" y="-10" as="offset" />
          </mxGeometry>
        </mxCell>
        <mxCell id="dE7XT5yFoyi2Y103YuFL-85" value="BankAccount" style="rounded=0;whiteSpace=wrap;html=1;fillColor=#CCCCFF;" vertex="1" parent="1">
          <mxGeometry x="1610" y="760" width="80" height="30" as="geometry" />
        </mxCell>
        <mxCell id="dE7XT5yFoyi2Y103YuFL-86" value="&lt;u&gt;accountNumber&lt;/u&gt;" style="ellipse;whiteSpace=wrap;html=1;fillColor=#CCCCFF;" vertex="1" parent="1">
          <mxGeometry x="1620" y="810" width="100" height="50" as="geometry" />
        </mxCell>
        <mxCell id="dE7XT5yFoyi2Y103YuFL-87" value="bankBranch" style="ellipse;whiteSpace=wrap;html=1;fillColor=#CCCCFF;" vertex="1" parent="1">
          <mxGeometry x="1640" y="690" width="80" height="50" as="geometry" />
        </mxCell>
        <mxCell id="dE7XT5yFoyi2Y103YuFL-88" value="bank" style="ellipse;whiteSpace=wrap;html=1;fillColor=#CCCCFF;" vertex="1" parent="1">
          <mxGeometry x="1700" y="750" width="80" height="50" as="geometry" />
        </mxCell>
        <mxCell id="dE7XT5yFoyi2Y103YuFL-91" value="educationFund" style="ellipse;whiteSpace=wrap;html=1;fillColor=#CCFF99;" vertex="1" parent="1">
          <mxGeometry x="1450" y="480" width="90" height="50" as="geometry" />
        </mxCell>
        <mxCell id="dE7XT5yFoyi2Y103YuFL-92" value="salary" style="ellipse;whiteSpace=wrap;html=1;fillColor=#CCFF99;" vertex="1" parent="1">
          <mxGeometry x="1350" y="400" width="80" height="50" as="geometry" />
        </mxCell>
        <mxCell id="dE7XT5yFoyi2Y103YuFL-93" value="sickDaysk" style="ellipse;whiteSpace=wrap;html=1;fillColor=#CCFF99;" vertex="1" parent="1">
          <mxGeometry x="1430" y="420" width="80" height="50" as="geometry" />
        </mxCell>
        <mxCell id="dE7XT5yFoyi2Y103YuFL-94" value="termsOfEmployment" style="ellipse;whiteSpace=wrap;html=1;fillColor=#CCFF99;" vertex="1" parent="1">
          <mxGeometry x="1317.5" y="525" width="145" height="50" as="geometry" />
        </mxCell>
        <mxCell id="dE7XT5yFoyi2Y103YuFL-95" value="daysOff" style="ellipse;whiteSpace=wrap;html=1;fillColor=#CCFF99;" vertex="1" parent="1">
          <mxGeometry x="1275" y="430" width="80" height="50" as="geometry" />
        </mxCell>
        <mxCell id="dE7XT5yFoyi2Y103YuFL-96" value="Constraint" style="rounded=0;whiteSpace=wrap;html=1;fillColor=#CCFFFF;" vertex="1" parent="1">
          <mxGeometry x="1187.5" y="810" width="80" height="30" as="geometry" />
        </mxCell>
        <mxCell id="dE7XT5yFoyi2Y103YuFL-97" value="reason" style="ellipse;whiteSpace=wrap;html=1;fillColor=#CCFFFF;" vertex="1" parent="1">
          <mxGeometry x="1090" y="800" width="80" height="50" as="geometry" />
        </mxCell>
        <mxCell id="dE7XT5yFoyi2Y103YuFL-98" value="&lt;u&gt;Date&lt;/u&gt;" style="ellipse;whiteSpace=wrap;html=1;fillColor=#CCFFFF;" vertex="1" parent="1">
          <mxGeometry x="1187.5" y="850" width="80" height="50" as="geometry" />
        </mxCell>
        <mxCell id="dE7XT5yFoyi2Y103YuFL-100" value="shift" style="ellipse;whiteSpace=wrap;html=1;fillColor=#CCFFFF;" vertex="1" parent="1">
          <mxGeometry x="1280" y="800" width="80" height="50" as="geometry" />
        </mxCell>
        <mxCell id="dE7XT5yFoyi2Y103YuFL-101" value="Shift" style="rounded=0;whiteSpace=wrap;html=1;fillColor=#FFFFCC;" vertex="1" parent="1">
          <mxGeometry x="1830" y="540" width="80" height="30" as="geometry" />
        </mxCell>
        <mxCell id="dE7XT5yFoyi2Y103YuFL-102" value="&lt;u&gt;Date&lt;/u&gt;" style="ellipse;whiteSpace=wrap;html=1;fillColor=#FFFFCC;" vertex="1" parent="1">
          <mxGeometry x="1830" y="590" width="80" height="50" as="geometry" />
        </mxCell>
        <mxCell id="dE7XT5yFoyi2Y103YuFL-103" value="type" style="ellipse;whiteSpace=wrap;html=1;fillColor=#FFFFCC;" vertex="1" parent="1">
          <mxGeometry x="1860" y="470" width="80" height="50" as="geometry" />
        </mxCell>
        <mxCell id="dE7XT5yFoyi2Y103YuFL-104" value="&lt;u&gt;shift&lt;/u&gt;" style="ellipse;whiteSpace=wrap;html=1;fillColor=#FFFFCC;" vertex="1" parent="1">
          <mxGeometry x="1920" y="530" width="80" height="50" as="geometry" />
        </mxCell>
        <mxCell id="dE7XT5yFoyi2Y103YuFL-106" value="manning" style="rhombus;whiteSpace=wrap;html=1;fillColor=#E6E6E6;" vertex="1" parent="1">
          <mxGeometry x="1540" y="590" width="80" height="50" as="geometry" />
        </mxCell>
        <mxCell id="dE7XT5yFoyi2Y103YuFL-107" value="" style="endArrow=none;html=1;exitX=1;exitY=0.5;exitDx=0;exitDy=0;entryX=0;entryY=0.5;entryDx=0;entryDy=0;" edge="1" parent="1" source="dE7XT5yFoyi2Y103YuFL-106" target="dE7XT5yFoyi2Y103YuFL-101">
          <mxGeometry width="50" height="50" relative="1" as="geometry">
            <mxPoint x="1550" y="625" as="sourcePoint" />
            <mxPoint x="1770" y="590" as="targetPoint" />
          </mxGeometry>
        </mxCell>
        <mxCell id="dE7XT5yFoyi2Y103YuFL-170" value="1..*" style="edgeLabel;html=1;align=center;verticalAlign=middle;resizable=0;points=[];" vertex="1" connectable="0" parent="dE7XT5yFoyi2Y103YuFL-107">
          <mxGeometry x="0.1251" y="2" relative="1" as="geometry">
            <mxPoint x="-7" y="-9" as="offset" />
          </mxGeometry>
        </mxCell>
        <mxCell id="dE7XT5yFoyi2Y103YuFL-108" value="ShiftType" style="rounded=0;whiteSpace=wrap;html=1;fillColor=#FFCCCC;" vertex="1" parent="1">
          <mxGeometry x="1660" y="340" width="80" height="30" as="geometry" />
        </mxCell>
        <mxCell id="dE7XT5yFoyi2Y103YuFL-109" value="num" style="ellipse;whiteSpace=wrap;html=1;fillColor=#FFCCCC;" vertex="1" parent="1">
          <mxGeometry x="1580" y="290" width="80" height="50" as="geometry" />
        </mxCell>
        <mxCell id="dE7XT5yFoyi2Y103YuFL-110" value="&lt;u&gt;type&lt;/u&gt;" style="ellipse;whiteSpace=wrap;html=1;fillColor=#FFCCCC;" vertex="1" parent="1">
          <mxGeometry x="1690" y="270" width="80" height="50" as="geometry" />
        </mxCell>
        <mxCell id="dE7XT5yFoyi2Y103YuFL-111" value="&lt;u&gt;role&lt;/u&gt;" style="ellipse;whiteSpace=wrap;html=1;fillColor=#FFCCCC;" vertex="1" parent="1">
          <mxGeometry x="1770" y="320" width="80" height="50" as="geometry" />
        </mxCell>
        <mxCell id="dE7XT5yFoyi2Y103YuFL-112" value="" style="endArrow=none;html=1;exitX=0.5;exitY=0;exitDx=0;exitDy=0;entryX=0.5;entryY=1;entryDx=0;entryDy=0;" edge="1" parent="1" source="dE7XT5yFoyi2Y103YuFL-1" target="dE7XT5yFoyi2Y103YuFL-8">
          <mxGeometry width="50" height="50" relative="1" as="geometry">
            <mxPoint x="340" y="270" as="sourcePoint" />
            <mxPoint x="390" y="220" as="targetPoint" />
          </mxGeometry>
        </mxCell>
        <mxCell id="dE7XT5yFoyi2Y103YuFL-113" value="" style="endArrow=none;html=1;exitX=0.25;exitY=0;exitDx=0;exitDy=0;entryX=1;entryY=1;entryDx=0;entryDy=0;" edge="1" parent="1" source="dE7XT5yFoyi2Y103YuFL-1" target="dE7XT5yFoyi2Y103YuFL-2">
          <mxGeometry width="50" height="50" relative="1" as="geometry">
            <mxPoint x="185" y="120" as="sourcePoint" />
            <mxPoint x="220" y="90" as="targetPoint" />
          </mxGeometry>
        </mxCell>
        <mxCell id="dE7XT5yFoyi2Y103YuFL-114" value="" style="endArrow=none;html=1;exitX=0;exitY=0.5;exitDx=0;exitDy=0;entryX=1;entryY=0.5;entryDx=0;entryDy=0;" edge="1" parent="1" source="dE7XT5yFoyi2Y103YuFL-1" target="dE7XT5yFoyi2Y103YuFL-4">
          <mxGeometry width="50" height="50" relative="1" as="geometry">
            <mxPoint x="167.5" y="120" as="sourcePoint" />
            <mxPoint x="138.2842712474619" y="92.67766952966372" as="targetPoint" />
          </mxGeometry>
        </mxCell>
        <mxCell id="dE7XT5yFoyi2Y103YuFL-115" value="" style="endArrow=none;html=1;entryX=0.5;entryY=1;entryDx=0;entryDy=0;exitX=0.25;exitY=0;exitDx=0;exitDy=0;" edge="1" parent="1" source="dE7XT5yFoyi2Y103YuFL-10" target="dE7XT5yFoyi2Y103YuFL-15">
          <mxGeometry width="50" height="50" relative="1" as="geometry">
            <mxPoint x="340" y="270" as="sourcePoint" />
            <mxPoint x="390" y="220" as="targetPoint" />
          </mxGeometry>
        </mxCell>
        <mxCell id="dE7XT5yFoyi2Y103YuFL-116" value="" style="endArrow=none;html=1;entryX=1;entryY=0.5;entryDx=0;entryDy=0;exitX=0;exitY=0.5;exitDx=0;exitDy=0;" edge="1" parent="1" source="dE7XT5yFoyi2Y103YuFL-10" target="dE7XT5yFoyi2Y103YuFL-11">
          <mxGeometry width="50" height="50" relative="1" as="geometry">
            <mxPoint x="167.5" y="320" as="sourcePoint" />
            <mxPoint x="145" y="300" as="targetPoint" />
          </mxGeometry>
        </mxCell>
        <mxCell id="dE7XT5yFoyi2Y103YuFL-117" value="" style="endArrow=none;html=1;entryX=1;entryY=0;entryDx=0;entryDy=0;exitX=0;exitY=1;exitDx=0;exitDy=0;" edge="1" parent="1" source="dE7XT5yFoyi2Y103YuFL-10" target="dE7XT5yFoyi2Y103YuFL-12">
          <mxGeometry width="50" height="50" relative="1" as="geometry">
            <mxPoint x="150" y="335" as="sourcePoint" />
            <mxPoint x="120" y="335" as="targetPoint" />
          </mxGeometry>
        </mxCell>
        <mxCell id="dE7XT5yFoyi2Y103YuFL-118" value="" style="endArrow=none;html=1;entryX=0.5;entryY=0;entryDx=0;entryDy=0;exitX=0.5;exitY=1;exitDx=0;exitDy=0;" edge="1" parent="1" source="dE7XT5yFoyi2Y103YuFL-10" target="dE7XT5yFoyi2Y103YuFL-14">
          <mxGeometry width="50" height="50" relative="1" as="geometry">
            <mxPoint x="150" y="350" as="sourcePoint" />
            <mxPoint x="138.2842712474619" y="377.3223304703363" as="targetPoint" />
          </mxGeometry>
        </mxCell>
        <mxCell id="dE7XT5yFoyi2Y103YuFL-119" value="" style="endArrow=none;html=1;entryX=0;entryY=0;entryDx=0;entryDy=0;exitX=1;exitY=0.75;exitDx=0;exitDy=0;" edge="1" parent="1" source="dE7XT5yFoyi2Y103YuFL-10" target="dE7XT5yFoyi2Y103YuFL-13">
          <mxGeometry width="50" height="50" relative="1" as="geometry">
            <mxPoint x="185" y="350" as="sourcePoint" />
            <mxPoint x="191.7157287525381" y="377.3223304703363" as="targetPoint" />
          </mxGeometry>
        </mxCell>
        <mxCell id="dE7XT5yFoyi2Y103YuFL-120" value="" style="endArrow=none;html=1;entryX=0;entryY=0.5;entryDx=0;entryDy=0;exitX=0.75;exitY=0;exitDx=0;exitDy=0;" edge="1" parent="1" source="dE7XT5yFoyi2Y103YuFL-10" target="dE7XT5yFoyi2Y103YuFL-16">
          <mxGeometry width="50" height="50" relative="1" as="geometry">
            <mxPoint x="220" y="342.5" as="sourcePoint" />
            <mxPoint x="248.18019484660522" y="337.32233047033617" as="targetPoint" />
          </mxGeometry>
        </mxCell>
        <mxCell id="dE7XT5yFoyi2Y103YuFL-121" value="" style="endArrow=none;html=1;entryX=0.5;entryY=1;entryDx=0;entryDy=0;exitX=0.25;exitY=0;exitDx=0;exitDy=0;" edge="1" parent="1" source="dE7XT5yFoyi2Y103YuFL-38" target="dE7XT5yFoyi2Y103YuFL-39">
          <mxGeometry width="50" height="50" relative="1" as="geometry">
            <mxPoint x="630" y="135" as="sourcePoint" />
            <mxPoint x="482.5" y="107.5" as="targetPoint" />
          </mxGeometry>
        </mxCell>
        <mxCell id="dE7XT5yFoyi2Y103YuFL-122" value="" style="endArrow=none;html=1;entryX=0.5;entryY=1;entryDx=0;entryDy=0;exitX=1;exitY=0.25;exitDx=0;exitDy=0;" edge="1" parent="1" source="dE7XT5yFoyi2Y103YuFL-38" target="dE7XT5yFoyi2Y103YuFL-43">
          <mxGeometry width="50" height="50" relative="1" as="geometry">
            <mxPoint x="652.5" y="120" as="sourcePoint" />
            <mxPoint x="640" y="110" as="targetPoint" />
          </mxGeometry>
        </mxCell>
        <mxCell id="dE7XT5yFoyi2Y103YuFL-133" value="" style="endArrow=none;html=1;exitX=0;exitY=0.5;exitDx=0;exitDy=0;entryX=1;entryY=0.5;entryDx=0;entryDy=0;" edge="1" parent="1" source="dE7XT5yFoyi2Y103YuFL-38" target="dE7XT5yFoyi2Y103YuFL-46">
          <mxGeometry width="50" height="50" relative="1" as="geometry">
            <mxPoint x="220" y="135" as="sourcePoint" />
            <mxPoint x="310" y="120" as="targetPoint" />
          </mxGeometry>
        </mxCell>
        <mxCell id="dE7XT5yFoyi2Y103YuFL-134" value="0..*" style="edgeLabel;html=1;align=center;verticalAlign=middle;resizable=0;points=[];" vertex="1" connectable="0" parent="dE7XT5yFoyi2Y103YuFL-133">
          <mxGeometry x="0.2615" y="-1" relative="1" as="geometry">
            <mxPoint x="4" y="-14" as="offset" />
          </mxGeometry>
        </mxCell>
        <mxCell id="dE7XT5yFoyi2Y103YuFL-140" value="is a" style="rhombus;whiteSpace=wrap;html=1;fillColor=#E6E6E6;" vertex="1" parent="1">
          <mxGeometry x="950" y="430" width="70" height="50" as="geometry" />
        </mxCell>
        <mxCell id="dE7XT5yFoyi2Y103YuFL-142" value="1" style="endArrow=none;html=1;exitX=0;exitY=0;exitDx=0;exitDy=0;entryX=1;entryY=1;entryDx=0;entryDy=0;" edge="1" parent="1" source="dE7XT5yFoyi2Y103YuFL-140" target="dE7XT5yFoyi2Y103YuFL-59">
          <mxGeometry x="-0.0117" y="9" width="50" height="50" relative="1" as="geometry">
            <mxPoint x="682.5" y="372.5" as="sourcePoint" />
            <mxPoint x="800" y="365" as="targetPoint" />
            <mxPoint as="offset" />
          </mxGeometry>
        </mxCell>
        <mxCell id="dE7XT5yFoyi2Y103YuFL-143" value="1" style="endArrow=none;html=1;exitX=0.5;exitY=0;exitDx=0;exitDy=0;entryX=1;entryY=1;entryDx=0;entryDy=0;" edge="1" parent="1" source="dE7XT5yFoyi2Y103YuFL-79" target="dE7XT5yFoyi2Y103YuFL-140">
          <mxGeometry x="-0.0117" y="9" width="50" height="50" relative="1" as="geometry">
            <mxPoint x="682.5" y="372.5" as="sourcePoint" />
            <mxPoint x="800" y="365" as="targetPoint" />
            <mxPoint as="offset" />
          </mxGeometry>
        </mxCell>
        <mxCell id="dE7XT5yFoyi2Y103YuFL-147" value="" style="endArrow=none;html=1;entryX=0.5;entryY=1;entryDx=0;entryDy=0;exitX=0.5;exitY=0;exitDx=0;exitDy=0;" edge="1" parent="1" source="dE7XT5yFoyi2Y103YuFL-17" target="dE7XT5yFoyi2Y103YuFL-21">
          <mxGeometry width="50" height="50" relative="1" as="geometry">
            <mxPoint x="670" y="350" as="sourcePoint" />
            <mxPoint x="720" y="300" as="targetPoint" />
          </mxGeometry>
        </mxCell>
        <mxCell id="dE7XT5yFoyi2Y103YuFL-148" value="" style="endArrow=none;html=1;entryX=1;entryY=1;entryDx=0;entryDy=0;exitX=0;exitY=0;exitDx=0;exitDy=0;" edge="1" parent="1" source="dE7XT5yFoyi2Y103YuFL-17" target="dE7XT5yFoyi2Y103YuFL-25">
          <mxGeometry width="50" height="50" relative="1" as="geometry">
            <mxPoint x="475" y="440" as="sourcePoint" />
            <mxPoint x="475" y="420" as="targetPoint" />
          </mxGeometry>
        </mxCell>
        <mxCell id="dE7XT5yFoyi2Y103YuFL-149" value="" style="endArrow=none;html=1;entryX=1;entryY=0.5;entryDx=0;entryDy=0;exitX=0;exitY=0.5;exitDx=0;exitDy=0;" edge="1" parent="1" source="dE7XT5yFoyi2Y103YuFL-17" target="dE7XT5yFoyi2Y103YuFL-26">
          <mxGeometry width="50" height="50" relative="1" as="geometry">
            <mxPoint x="440" y="440" as="sourcePoint" />
            <mxPoint x="423.45113572690093" y="432.5727603019095" as="targetPoint" />
          </mxGeometry>
        </mxCell>
        <mxCell id="dE7XT5yFoyi2Y103YuFL-150" value="" style="endArrow=none;html=1;entryX=1;entryY=0;entryDx=0;entryDy=0;exitX=0;exitY=1;exitDx=0;exitDy=0;" edge="1" parent="1" source="dE7XT5yFoyi2Y103YuFL-17" target="dE7XT5yFoyi2Y103YuFL-27">
          <mxGeometry width="50" height="50" relative="1" as="geometry">
            <mxPoint x="440" y="455" as="sourcePoint" />
            <mxPoint x="410.00000000000523" y="465" as="targetPoint" />
          </mxGeometry>
        </mxCell>
        <mxCell id="dE7XT5yFoyi2Y103YuFL-151" value="" style="endArrow=none;html=1;entryX=0.5;entryY=0;entryDx=0;entryDy=0;exitX=0.5;exitY=1;exitDx=0;exitDy=0;" edge="1" parent="1" source="dE7XT5yFoyi2Y103YuFL-17" target="dE7XT5yFoyi2Y103YuFL-20">
          <mxGeometry width="50" height="50" relative="1" as="geometry">
            <mxPoint x="440" y="470" as="sourcePoint" />
            <mxPoint x="423.45113572690093" y="497.4272396980905" as="targetPoint" />
          </mxGeometry>
        </mxCell>
        <mxCell id="dE7XT5yFoyi2Y103YuFL-152" value="" style="endArrow=none;html=1;entryX=0;entryY=0;entryDx=0;entryDy=0;exitX=0.75;exitY=1;exitDx=0;exitDy=0;" edge="1" parent="1" source="dE7XT5yFoyi2Y103YuFL-17" target="dE7XT5yFoyi2Y103YuFL-18">
          <mxGeometry width="50" height="50" relative="1" as="geometry">
            <mxPoint x="475" y="470" as="sourcePoint" />
            <mxPoint x="475" y="500" as="targetPoint" />
          </mxGeometry>
        </mxCell>
        <mxCell id="dE7XT5yFoyi2Y103YuFL-153" value="" style="endArrow=none;html=1;entryX=0.5;entryY=0;entryDx=0;entryDy=0;exitX=0.5;exitY=1;exitDx=0;exitDy=0;" edge="1" parent="1" source="dE7XT5yFoyi2Y103YuFL-64" target="dE7XT5yFoyi2Y103YuFL-59">
          <mxGeometry width="50" height="50" relative="1" as="geometry">
            <mxPoint x="492.5" y="470" as="sourcePoint" />
            <mxPoint x="531.5488642731214" y="497.42723969810413" as="targetPoint" />
          </mxGeometry>
        </mxCell>
        <mxCell id="dE7XT5yFoyi2Y103YuFL-154" value="" style="endArrow=none;html=1;entryX=1;entryY=0.5;entryDx=0;entryDy=0;exitX=0;exitY=0.5;exitDx=0;exitDy=0;" edge="1" parent="1" source="dE7XT5yFoyi2Y103YuFL-65" target="dE7XT5yFoyi2Y103YuFL-59">
          <mxGeometry width="50" height="50" relative="1" as="geometry">
            <mxPoint x="869.9999999999998" y="320" as="sourcePoint" />
            <mxPoint x="834.9999999999998" y="350" as="targetPoint" />
          </mxGeometry>
        </mxCell>
        <mxCell id="dE7XT5yFoyi2Y103YuFL-155" value="" style="endArrow=none;html=1;entryX=0.5;entryY=0;entryDx=0;entryDy=0;exitX=0.5;exitY=1;exitDx=0;exitDy=0;" edge="1" parent="1" source="dE7XT5yFoyi2Y103YuFL-72" target="dE7XT5yFoyi2Y103YuFL-61">
          <mxGeometry width="50" height="50" relative="1" as="geometry">
            <mxPoint x="889.9999999999998" y="355" as="sourcePoint" />
            <mxPoint x="869.9999999999998" y="365" as="targetPoint" />
          </mxGeometry>
        </mxCell>
        <mxCell id="dE7XT5yFoyi2Y103YuFL-156" value="" style="endArrow=none;html=1;entryX=1;entryY=0.5;entryDx=0;entryDy=0;exitX=0;exitY=0.5;exitDx=0;exitDy=0;" edge="1" parent="1" source="dE7XT5yFoyi2Y103YuFL-73" target="dE7XT5yFoyi2Y103YuFL-61">
          <mxGeometry width="50" height="50" relative="1" as="geometry">
            <mxPoint x="889.9999999999998" y="559.9999999999999" as="sourcePoint" />
            <mxPoint x="864.9999999999998" y="579.9999999999999" as="targetPoint" />
          </mxGeometry>
        </mxCell>
        <mxCell id="dE7XT5yFoyi2Y103YuFL-157" value="" style="endArrow=none;html=1;entryX=0.5;entryY=1;entryDx=0;entryDy=0;exitX=0.5;exitY=0;exitDx=0;exitDy=0;" edge="1" parent="1" source="dE7XT5yFoyi2Y103YuFL-74" target="dE7XT5yFoyi2Y103YuFL-61">
          <mxGeometry width="50" height="50" relative="1" as="geometry">
            <mxPoint x="909.9999999999998" y="594.9999999999999" as="sourcePoint" />
            <mxPoint x="899.9999999999998" y="594.9999999999999" as="targetPoint" />
          </mxGeometry>
        </mxCell>
        <mxCell id="dE7XT5yFoyi2Y103YuFL-158" value="" style="endArrow=none;html=1;entryX=0;entryY=0.5;entryDx=0;entryDy=0;exitX=1;exitY=0.5;exitDx=0;exitDy=0;" edge="1" parent="1" source="dE7XT5yFoyi2Y103YuFL-71" target="dE7XT5yFoyi2Y103YuFL-61">
          <mxGeometry width="50" height="50" relative="1" as="geometry">
            <mxPoint x="864.9999999999998" y="629.9999999999999" as="sourcePoint" />
            <mxPoint x="864.9999999999998" y="609.9999999999999" as="targetPoint" />
          </mxGeometry>
        </mxCell>
        <mxCell id="dE7XT5yFoyi2Y103YuFL-159" value="" style="endArrow=none;html=1;entryX=1;entryY=0;entryDx=0;entryDy=0;exitX=0.5;exitY=1;exitDx=0;exitDy=0;" edge="1" parent="1" source="dE7XT5yFoyi2Y103YuFL-79" target="dE7XT5yFoyi2Y103YuFL-83">
          <mxGeometry width="50" height="50" relative="1" as="geometry">
            <mxPoint x="810" y="605" as="sourcePoint" />
            <mxPoint x="830" y="595" as="targetPoint" />
          </mxGeometry>
        </mxCell>
        <mxCell id="dE7XT5yFoyi2Y103YuFL-160" value="" style="endArrow=none;html=1;entryX=1;entryY=0.5;entryDx=0;entryDy=0;exitX=0;exitY=0.5;exitDx=0;exitDy=0;" edge="1" parent="1" source="dE7XT5yFoyi2Y103YuFL-79" target="dE7XT5yFoyi2Y103YuFL-80">
          <mxGeometry width="50" height="50" relative="1" as="geometry">
            <mxPoint x="1265" y="615" as="sourcePoint" />
            <mxPoint x="1228.419277385914" y="637.4071139991961" as="targetPoint" />
          </mxGeometry>
        </mxCell>
        <mxCell id="dE7XT5yFoyi2Y103YuFL-161" value="" style="endArrow=none;html=1;entryX=0.5;entryY=1;entryDx=0;entryDy=0;exitX=1;exitY=0.25;exitDx=0;exitDy=0;" edge="1" parent="1" source="dE7XT5yFoyi2Y103YuFL-79" target="dE7XT5yFoyi2Y103YuFL-94">
          <mxGeometry width="50" height="50" relative="1" as="geometry">
            <mxPoint x="1230" y="600" as="sourcePoint" />
            <mxPoint x="1197.500000000006" y="585" as="targetPoint" />
          </mxGeometry>
        </mxCell>
        <mxCell id="dE7XT5yFoyi2Y103YuFL-162" value="" style="endArrow=none;html=1;entryX=0;entryY=0;entryDx=0;entryDy=0;exitX=1;exitY=0.5;exitDx=0;exitDy=0;" edge="1" parent="1" source="dE7XT5yFoyi2Y103YuFL-81" target="dE7XT5yFoyi2Y103YuFL-94">
          <mxGeometry width="50" height="50" relative="1" as="geometry">
            <mxPoint x="1300" y="592.5" as="sourcePoint" />
            <mxPoint x="1387.5" y="585" as="targetPoint" />
          </mxGeometry>
        </mxCell>
        <mxCell id="dE7XT5yFoyi2Y103YuFL-163" value="" style="endArrow=none;html=1;entryX=0.5;entryY=0;entryDx=0;entryDy=0;exitX=1;exitY=1;exitDx=0;exitDy=0;" edge="1" parent="1" source="dE7XT5yFoyi2Y103YuFL-95" target="dE7XT5yFoyi2Y103YuFL-94">
          <mxGeometry width="50" height="50" relative="1" as="geometry">
            <mxPoint x="1315.0000000000095" y="525" as="sourcePoint" />
            <mxPoint x="1336.0319977646968" y="542.3925255510803" as="targetPoint" />
          </mxGeometry>
        </mxCell>
        <mxCell id="dE7XT5yFoyi2Y103YuFL-164" value="" style="endArrow=none;html=1;entryX=0.5;entryY=0;entryDx=0;entryDy=0;exitX=0.5;exitY=1;exitDx=0;exitDy=0;" edge="1" parent="1" source="dE7XT5yFoyi2Y103YuFL-92" target="dE7XT5yFoyi2Y103YuFL-94">
          <mxGeometry width="50" height="50" relative="1" as="geometry">
            <mxPoint x="1353.4192773859222" y="482.592886000809" as="sourcePoint" />
            <mxPoint x="1387.5" y="535" as="targetPoint" />
          </mxGeometry>
        </mxCell>
        <mxCell id="dE7XT5yFoyi2Y103YuFL-165" value="" style="endArrow=none;html=1;entryX=0.5;entryY=0;entryDx=0;entryDy=0;exitX=0;exitY=1;exitDx=0;exitDy=0;" edge="1" parent="1" source="dE7XT5yFoyi2Y103YuFL-93" target="dE7XT5yFoyi2Y103YuFL-94">
          <mxGeometry width="50" height="50" relative="1" as="geometry">
            <mxPoint x="1400" y="460" as="sourcePoint" />
            <mxPoint x="1400" y="535" as="targetPoint" />
          </mxGeometry>
        </mxCell>
        <mxCell id="dE7XT5yFoyi2Y103YuFL-166" value="" style="endArrow=none;html=1;entryX=1;entryY=0;entryDx=0;entryDy=0;exitX=0;exitY=1;exitDx=0;exitDy=0;" edge="1" parent="1" source="dE7XT5yFoyi2Y103YuFL-91" target="dE7XT5yFoyi2Y103YuFL-94">
          <mxGeometry width="50" height="50" relative="1" as="geometry">
            <mxPoint x="1451.5807226140948" y="472.59288600079844" as="sourcePoint" />
            <mxPoint x="1400" y="535" as="targetPoint" />
          </mxGeometry>
        </mxCell>
        <mxCell id="dE7XT5yFoyi2Y103YuFL-167" value="" style="endArrow=none;html=1;entryX=0.5;entryY=0;entryDx=0;entryDy=0;exitX=0.5;exitY=1;exitDx=0;exitDy=0;" edge="1" parent="1" source="dE7XT5yFoyi2Y103YuFL-103" target="dE7XT5yFoyi2Y103YuFL-101">
          <mxGeometry width="50" height="50" relative="1" as="geometry">
            <mxPoint x="1473.1801948466186" y="532.6776695296563" as="sourcePoint" />
            <mxPoint x="1451.2652416360243" y="542.3223304703363" as="targetPoint" />
          </mxGeometry>
        </mxCell>
        <mxCell id="dE7XT5yFoyi2Y103YuFL-168" value="" style="endArrow=none;html=1;entryX=1;entryY=0.5;entryDx=0;entryDy=0;exitX=0;exitY=0.5;exitDx=0;exitDy=0;" edge="1" parent="1" source="dE7XT5yFoyi2Y103YuFL-104" target="dE7XT5yFoyi2Y103YuFL-101">
          <mxGeometry width="50" height="50" relative="1" as="geometry">
            <mxPoint x="1910" y="529.9999999999999" as="sourcePoint" />
            <mxPoint x="1880" y="549.9999999999999" as="targetPoint" />
          </mxGeometry>
        </mxCell>
        <mxCell id="dE7XT5yFoyi2Y103YuFL-169" value="" style="endArrow=none;html=1;entryX=0.5;entryY=1;entryDx=0;entryDy=0;exitX=0.5;exitY=0;exitDx=0;exitDy=0;" edge="1" parent="1" source="dE7XT5yFoyi2Y103YuFL-102" target="dE7XT5yFoyi2Y103YuFL-101">
          <mxGeometry width="50" height="50" relative="1" as="geometry">
            <mxPoint x="1930.000000000021" y="564.9999999999999" as="sourcePoint" />
            <mxPoint x="1920" y="564.9999999999999" as="targetPoint" />
          </mxGeometry>
        </mxCell>
        <mxCell id="dE7XT5yFoyi2Y103YuFL-172" value="has" style="rhombus;whiteSpace=wrap;html=1;fillColor=#E6E6E6;" vertex="1" parent="1">
          <mxGeometry x="1267.5" y="670" width="80" height="50" as="geometry" />
        </mxCell>
        <mxCell id="dE7XT5yFoyi2Y103YuFL-173" value="" style="endArrow=none;html=1;exitX=0.5;exitY=0;exitDx=0;exitDy=0;entryX=1;entryY=1;entryDx=0;entryDy=0;" edge="1" parent="1" source="dE7XT5yFoyi2Y103YuFL-172" target="dE7XT5yFoyi2Y103YuFL-79">
          <mxGeometry width="50" height="50" relative="1" as="geometry">
            <mxPoint x="1550" y="624.9999999999999" as="sourcePoint" />
            <mxPoint x="1300" y="599.9999999999999" as="targetPoint" />
          </mxGeometry>
        </mxCell>
        <mxCell id="dE7XT5yFoyi2Y103YuFL-174" value="1" style="edgeLabel;html=1;align=center;verticalAlign=middle;resizable=0;points=[];" vertex="1" connectable="0" parent="dE7XT5yFoyi2Y103YuFL-173">
          <mxGeometry x="-0.2832" y="4" relative="1" as="geometry">
            <mxPoint x="8" y="-16" as="offset" />
          </mxGeometry>
        </mxCell>
        <mxCell id="dE7XT5yFoyi2Y103YuFL-176" value="" style="endArrow=none;html=1;exitX=0.5;exitY=0;exitDx=0;exitDy=0;entryX=0;entryY=1;entryDx=0;entryDy=0;" edge="1" parent="1" source="dE7XT5yFoyi2Y103YuFL-96" target="dE7XT5yFoyi2Y103YuFL-172">
          <mxGeometry width="50" height="50" relative="1" as="geometry">
            <mxPoint x="1340" y="692.5" as="sourcePoint" />
            <mxPoint x="1300" y="614.9999999999999" as="targetPoint" />
          </mxGeometry>
        </mxCell>
        <mxCell id="dE7XT5yFoyi2Y103YuFL-177" value="0..*" style="edgeLabel;html=1;align=center;verticalAlign=middle;resizable=0;points=[];" vertex="1" connectable="0" parent="dE7XT5yFoyi2Y103YuFL-176">
          <mxGeometry x="-0.2832" y="4" relative="1" as="geometry">
            <mxPoint x="6" y="-21" as="offset" />
          </mxGeometry>
        </mxCell>
        <mxCell id="dE7XT5yFoyi2Y103YuFL-179" value="is a" style="rhombus;whiteSpace=wrap;html=1;fillColor=#E6E6E6;" vertex="1" parent="1">
          <mxGeometry x="1660" y="430" width="80" height="50" as="geometry" />
        </mxCell>
        <mxCell id="dE7XT5yFoyi2Y103YuFL-180" value="" style="endArrow=none;html=1;exitX=0.5;exitY=0;exitDx=0;exitDy=0;entryX=0.5;entryY=1;entryDx=0;entryDy=0;" edge="1" parent="1" source="dE7XT5yFoyi2Y103YuFL-179" target="dE7XT5yFoyi2Y103YuFL-108">
          <mxGeometry width="50" height="50" relative="1" as="geometry">
            <mxPoint x="1340" y="692.5" as="sourcePoint" />
            <mxPoint x="1300" y="614.9999999999999" as="targetPoint" />
          </mxGeometry>
        </mxCell>
        <mxCell id="dE7XT5yFoyi2Y103YuFL-181" value="1" style="edgeLabel;html=1;align=center;verticalAlign=middle;resizable=0;points=[];" vertex="1" connectable="0" parent="dE7XT5yFoyi2Y103YuFL-180">
          <mxGeometry x="-0.2832" y="4" relative="1" as="geometry">
            <mxPoint x="8" y="-16" as="offset" />
          </mxGeometry>
        </mxCell>
        <mxCell id="dE7XT5yFoyi2Y103YuFL-182" value="" style="endArrow=none;html=1;exitX=1;exitY=1;exitDx=0;exitDy=0;entryX=0;entryY=0;entryDx=0;entryDy=0;" edge="1" parent="1" source="dE7XT5yFoyi2Y103YuFL-179" target="dE7XT5yFoyi2Y103YuFL-101">
          <mxGeometry width="50" height="50" relative="1" as="geometry">
            <mxPoint x="1710" y="440" as="sourcePoint" />
            <mxPoint x="1710" y="380" as="targetPoint" />
          </mxGeometry>
        </mxCell>
        <mxCell id="dE7XT5yFoyi2Y103YuFL-183" value="1..*" style="edgeLabel;html=1;align=center;verticalAlign=middle;resizable=0;points=[];" vertex="1" connectable="0" parent="dE7XT5yFoyi2Y103YuFL-182">
          <mxGeometry x="-0.2832" y="4" relative="1" as="geometry">
            <mxPoint x="18" as="offset" />
          </mxGeometry>
        </mxCell>
        <mxCell id="dE7XT5yFoyi2Y103YuFL-184" value="" style="endArrow=none;html=1;entryX=1;entryY=1;entryDx=0;entryDy=0;exitX=0;exitY=0;exitDx=0;exitDy=0;" edge="1" parent="1" source="dE7XT5yFoyi2Y103YuFL-108" target="dE7XT5yFoyi2Y103YuFL-109">
          <mxGeometry width="50" height="50" relative="1" as="geometry">
            <mxPoint x="1550" y="430" as="sourcePoint" />
            <mxPoint x="1600" y="380" as="targetPoint" />
          </mxGeometry>
        </mxCell>
        <mxCell id="dE7XT5yFoyi2Y103YuFL-185" value="" style="endArrow=none;html=1;entryX=0.5;entryY=1;entryDx=0;entryDy=0;exitX=0.75;exitY=0;exitDx=0;exitDy=0;" edge="1" parent="1" source="dE7XT5yFoyi2Y103YuFL-108" target="dE7XT5yFoyi2Y103YuFL-110">
          <mxGeometry width="50" height="50" relative="1" as="geometry">
            <mxPoint x="1670" y="350" as="sourcePoint" />
            <mxPoint x="1658.2842712474467" y="342.67766952965405" as="targetPoint" />
          </mxGeometry>
        </mxCell>
        <mxCell id="dE7XT5yFoyi2Y103YuFL-186" value="" style="endArrow=none;html=1;entryX=0;entryY=0.5;entryDx=0;entryDy=0;exitX=1;exitY=0.5;exitDx=0;exitDy=0;" edge="1" parent="1" source="dE7XT5yFoyi2Y103YuFL-108" target="dE7XT5yFoyi2Y103YuFL-111">
          <mxGeometry width="50" height="50" relative="1" as="geometry">
            <mxPoint x="1760" y="365" as="sourcePoint" />
            <mxPoint x="1770" y="345" as="targetPoint" />
          </mxGeometry>
        </mxCell>
        <mxCell id="dE7XT5yFoyi2Y103YuFL-187" value="has" style="rhombus;whiteSpace=wrap;html=1;fillColor=#E6E6E6;" vertex="1" parent="1">
          <mxGeometry x="1410" y="675" width="80" height="50" as="geometry" />
        </mxCell>
        <mxCell id="dE7XT5yFoyi2Y103YuFL-188" value="" style="endArrow=none;html=1;exitX=0.5;exitY=0;exitDx=0;exitDy=0;entryX=1;entryY=1;entryDx=0;entryDy=0;" edge="1" parent="1" source="dE7XT5yFoyi2Y103YuFL-187" target="dE7XT5yFoyi2Y103YuFL-79">
          <mxGeometry width="50" height="50" relative="1" as="geometry">
            <mxPoint x="1692.5" y="629.9999999999999" as="sourcePoint" />
            <mxPoint x="1432.5" y="609.9999999999999" as="targetPoint" />
          </mxGeometry>
        </mxCell>
        <mxCell id="dE7XT5yFoyi2Y103YuFL-189" value="1" style="edgeLabel;html=1;align=center;verticalAlign=middle;resizable=0;points=[];" vertex="1" connectable="0" parent="dE7XT5yFoyi2Y103YuFL-188">
          <mxGeometry x="-0.2832" y="4" relative="1" as="geometry">
            <mxPoint x="8" y="-16" as="offset" />
          </mxGeometry>
        </mxCell>
        <mxCell id="dE7XT5yFoyi2Y103YuFL-190" value="" style="endArrow=none;html=1;exitX=0;exitY=0;exitDx=0;exitDy=0;entryX=1;entryY=1;entryDx=0;entryDy=0;" edge="1" parent="1" target="dE7XT5yFoyi2Y103YuFL-187" source="dE7XT5yFoyi2Y103YuFL-85">
          <mxGeometry width="50" height="50" relative="1" as="geometry">
            <mxPoint x="1370" y="815" as="sourcePoint" />
            <mxPoint x="1442.5" y="619.9999999999999" as="targetPoint" />
          </mxGeometry>
        </mxCell>
        <mxCell id="dE7XT5yFoyi2Y103YuFL-191" value="1" style="edgeLabel;html=1;align=center;verticalAlign=middle;resizable=0;points=[];" vertex="1" connectable="0" parent="dE7XT5yFoyi2Y103YuFL-190">
          <mxGeometry x="-0.2832" y="4" relative="1" as="geometry">
            <mxPoint x="-18" y="-22" as="offset" />
          </mxGeometry>
        </mxCell>
        <mxCell id="dE7XT5yFoyi2Y103YuFL-192" value="" style="endArrow=none;html=1;exitX=0.5;exitY=0;exitDx=0;exitDy=0;entryX=0;entryY=1;entryDx=0;entryDy=0;" edge="1" parent="1" source="dE7XT5yFoyi2Y103YuFL-85" target="dE7XT5yFoyi2Y103YuFL-87">
          <mxGeometry width="50" height="50" relative="1" as="geometry">
            <mxPoint x="1550" y="700" as="sourcePoint" />
            <mxPoint x="1600" y="650" as="targetPoint" />
          </mxGeometry>
        </mxCell>
        <mxCell id="dE7XT5yFoyi2Y103YuFL-193" value="" style="endArrow=none;html=1;exitX=1;exitY=0.5;exitDx=0;exitDy=0;entryX=0;entryY=0.5;entryDx=0;entryDy=0;" edge="1" parent="1" source="dE7XT5yFoyi2Y103YuFL-85" target="dE7XT5yFoyi2Y103YuFL-88">
          <mxGeometry width="50" height="50" relative="1" as="geometry">
            <mxPoint x="1660" y="770" as="sourcePoint" />
            <mxPoint x="1661.7157287525529" y="742.6776695296544" as="targetPoint" />
          </mxGeometry>
        </mxCell>
        <mxCell id="dE7XT5yFoyi2Y103YuFL-194" value="" style="endArrow=none;html=1;exitX=0.5;exitY=0;exitDx=0;exitDy=0;entryX=0.5;entryY=1;entryDx=0;entryDy=0;" edge="1" parent="1" source="dE7XT5yFoyi2Y103YuFL-86" target="dE7XT5yFoyi2Y103YuFL-85">
          <mxGeometry width="50" height="50" relative="1" as="geometry">
            <mxPoint x="1700" y="785" as="sourcePoint" />
            <mxPoint x="1710.00000000001" y="785" as="targetPoint" />
          </mxGeometry>
        </mxCell>
        <mxCell id="dE7XT5yFoyi2Y103YuFL-195" value="" style="endArrow=none;html=1;entryX=0;entryY=0.5;entryDx=0;entryDy=0;exitX=1;exitY=0.5;exitDx=0;exitDy=0;" edge="1" parent="1" source="dE7XT5yFoyi2Y103YuFL-97" target="dE7XT5yFoyi2Y103YuFL-96">
          <mxGeometry width="50" height="50" relative="1" as="geometry">
            <mxPoint x="1100" y="810" as="sourcePoint" />
            <mxPoint x="1150" y="760" as="targetPoint" />
          </mxGeometry>
        </mxCell>
        <mxCell id="dE7XT5yFoyi2Y103YuFL-196" value="" style="endArrow=none;html=1;entryX=0.5;entryY=1;entryDx=0;entryDy=0;exitX=0.5;exitY=0;exitDx=0;exitDy=0;" edge="1" parent="1" source="dE7XT5yFoyi2Y103YuFL-98" target="dE7XT5yFoyi2Y103YuFL-96">
          <mxGeometry width="50" height="50" relative="1" as="geometry">
            <mxPoint x="1179.9999999999995" y="835" as="sourcePoint" />
            <mxPoint x="1197.5" y="835" as="targetPoint" />
          </mxGeometry>
        </mxCell>
        <mxCell id="dE7XT5yFoyi2Y103YuFL-197" value="" style="endArrow=none;html=1;entryX=0;entryY=0.5;entryDx=0;entryDy=0;exitX=1;exitY=0.5;exitDx=0;exitDy=0;" edge="1" parent="1" source="dE7XT5yFoyi2Y103YuFL-96" target="dE7XT5yFoyi2Y103YuFL-100">
          <mxGeometry width="50" height="50" relative="1" as="geometry">
            <mxPoint x="1237.5" y="860" as="sourcePoint" />
            <mxPoint x="1237.5" y="850" as="targetPoint" />
          </mxGeometry>
        </mxCell>
      </root>
    </mxGraphModel>
  </diagram>
</mxfile>
